<svg width="84" height="84" viewBox="0 0 84 84" fill="none" xmlns="http://www.w3.org/2000/svg">
<g filter="url(#filter0_dd_22_260)">
<rect x="2" y="2" width="80" height="80" rx="40" fill="#F5F2FD"/>
<path d="M42 27L42 57" stroke="#7F55E0" stroke-width="2.4" stroke-miterlimit="10"/>
<path d="M27 42L57 42" stroke="#7F55E0" stroke-width="2.4" stroke-miterlimit="10"/>
<path d="M41.9997 57C46.7333 57 50.5707 50.2843 50.5707 42C50.5707 33.7157 46.7333 27 41.9997 27C37.2661 27 33.4287 33.7157 33.4287 42C33.4287 50.2843 37.2661 57 41.9997 57Z" stroke="#7F55E0" stroke-width="2.4" stroke-miterlimit="10" stroke-linecap="square"/>
<path d="M29.3096 34L54.6896 34" stroke="#7F55E0" stroke-width="2.4" stroke-miterlimit="10"/>
<path d="M29.3096 50L54.6896 50" stroke="#7F55E0" stroke-width="2.4" stroke-miterlimit="10"/>
<path d="M42 57C50.2843 57 57 50.2843 57 42C57 33.7157 50.2843 27 42 27C33.7157 27 27 33.7157 27 42C27 50.2843 33.7157 57 42 57Z" stroke="#7F55E0" stroke-width="2.4" stroke-miterlimit="10" stroke-linecap="square"/>
</g>
<defs>
<filter id="filter0_dd_22_260" x="0" y="0" width="84" height="84" filterUnits="userSpaceOnUse" color-interpolation-filters="sRGB">
<feFlood flood-opacity="0" result="BackgroundImageFix"/>
<feColorMatrix in="SourceAlpha" type="matrix" values="0 0 0 0 0 0 0 0 0 0 0 0 0 0 0 0 0 0 127 0" result="hardAlpha"/>
<feOffset/>
<feGaussianBlur stdDeviation="0.5"/>
<feColorMatrix type="matrix" values="0 0 0 0 0.0901961 0 0 0 0 0.101961 0 0 0 0 0.121569 0 0 0 0.07 0"/>
<feBlend mode="normal" in2="BackgroundImageFix" result="effect1_dropShadow_22_260"/>
<feColorMatrix in="SourceAlpha" type="matrix" values="0 0 0 0 0 0 0 0 0 0 0 0 0 0 0 0 0 0 127 0" result="hardAlpha"/>
<feOffset/>
<feGaussianBlur stdDeviation="1"/>
<feColorMatrix type="matrix" values="0 0 0 0 0.0901961 0 0 0 0 0.101961 0 0 0 0 0.121569 0 0 0 0.12 0"/>
<feBlend mode="normal" in2="effect1_dropShadow_22_260" result="effect2_dropShadow_22_260"/>
<feBlend mode="normal" in="SourceGraphic" in2="effect2_dropShadow_22_260" result="shape"/>
</filter>
</defs>
</svg>
