<svg width="31" height="26" viewBox="0 0 31 26" fill="none" xmlns="http://www.w3.org/2000/svg">
<path d="M5.84098 11.2261V14.7427C5.84098 17.3113 5.84098 18.5957 6.17869 19.635C6.86122 21.7356 8.50814 23.3825 10.6088 24.065C11.6481 24.4027 12.9325 24.4027 15.5009 24.4027C18.0695 24.4027 19.3539 24.4027 20.3932 24.065C22.4938 23.3825 24.1407 21.7356 24.8232 19.635C25.1609 18.5957 25.1609 17.3113 25.1609 14.7427V11.2305M25.1609 11.2305C23.84 11.7659 22.208 12.3474 20.2659 13.041L17.3577 14.0798C16.4386 14.4079 15.9792 14.5721 15.5011 14.5721C15.023 14.5721 14.5635 14.4079 13.6446 14.0798L10.7363 13.041C4.66341 10.8722 1.62695 9.78769 1.62695 7.84269C1.62695 5.89767 4.66341 4.8132 10.7363 2.64428L13.6446 1.60562C14.5635 1.27739 15.023 1.11328 15.5011 1.11328C15.9792 1.11328 16.4386 1.27739 17.3577 1.60562L20.2659 2.64428C26.3389 4.8132 29.3753 5.89767 29.3753 7.84269C29.3753 9.16571 27.9709 10.0917 25.1609 11.2305Z" stroke="#636AE8" stroke-width="2.07" stroke-linecap="round"/>
<path d="M13.4316 0.592115L10.3017 1.71001C7.33813 2.76843 5.00894 3.60028 3.42861 4.41776C1.90117 5.20788 0.591797 6.2235 0.591797 7.85229V17.5285C0.591797 18.1001 1.12921 18.5473 1.70082 18.5473C2.27244 18.5473 2.73582 18.0839 2.73582 17.5123V10.9003C2.33802 10.659 1.9701 10.3955 1.65539 10.1019C1.0126 9.50196 0.591797 8.77567 0.591797 7.85229C0.591797 7.28067 1.12921 6.8173 1.70082 6.8173C1.80226 6.8173 1.89797 6.83188 1.98677 6.85908L1.70092 6.98772L1.91708 7.85236H2.66188C2.66188 8.16859 2.87073 8.66772 4.37976 9.44832C5.82056 10.1936 8.01617 10.9802 11.0844 12.0761L13.9926 13.1147C14.9793 13.4671 15.2437 13.5468 15.5011 13.5468C15.7584 13.5468 16.0228 13.4671 17.0095 13.1147L20.0149 12.0413C21.9212 11.3606 23.4976 10.7975 24.7722 10.281C26.1668 9.71572 27.108 9.24238 27.6914 8.79441C28.2517 8.36425 28.3403 8.07236 28.3403 7.85236H30.4102C30.4102 7.85235 30.4102 7.85239 30.4102 7.85236C30.4102 6.22356 29.1008 5.20788 27.5733 4.41776C25.9931 3.60028 23.6638 2.76843 20.7002 1.71L17.5704 0.592129C16.784 0.310554 16.1624 0.0878906 15.5009 0.0878906C14.8396 0.0878906 14.2179 0.310554 13.4316 0.592115Z" fill="#636AE8"/>
<path d="M30.3537 8.00977C30.3112 8.76805 29.9735 9.39422 29.4746 9.91846C29.9791 9.39117 30.3119 8.7691 30.3537 8.00977Z" fill="#636AE8"/>
</svg>
