<svg width="84" height="27" viewBox="0 0 84 27" fill="none" xmlns="http://www.w3.org/2000/svg">
<path d="M13.896 24.64L10.76 21.28C10.6293 21.2987 10.4893 21.308 10.34 21.308C10.1907 21.3267 10.0507 21.336 9.92 21.336C7.92267 21.336 6.196 20.972 4.74 20.244C3.30267 19.4973 2.192 18.3867 1.408 16.912C0.642667 15.4373 0.26 13.5987 0.26 11.396C0.26 9.13733 0.652 7.28 1.436 5.824C2.22 4.34933 3.34933 3.25733 4.824 2.548C6.29867 1.82 8.05333 1.456 10.088 1.456C12.16 1.456 13.924 1.82 15.38 2.548C16.8547 3.25733 17.984 4.34933 18.768 5.824C19.552 7.28 19.944 9.13733 19.944 11.396C19.944 13.7293 19.5147 15.6427 18.656 17.136C17.7973 18.6293 16.584 19.7307 15.016 20.44L19.328 24.64H13.896ZM10.088 17.92C11.0027 17.92 11.8053 17.7893 12.496 17.528C13.1867 17.2667 13.7653 16.8747 14.232 16.352C14.6987 15.8293 15.0533 15.1947 15.296 14.448C15.5387 13.6827 15.66 12.8147 15.66 11.844V10.976C15.66 9.98667 15.5387 9.10933 15.296 8.344C15.0533 7.57867 14.6987 6.944 14.232 6.44C13.7653 5.91733 13.1867 5.52533 12.496 5.264C11.8053 5.00267 11.0027 4.872 10.088 4.872C9.192 4.872 8.39867 5.00267 7.708 5.264C7.01733 5.52533 6.43867 5.91733 5.972 6.44C5.50533 6.944 5.15067 7.57867 4.908 8.344C4.684 9.10933 4.572 9.98667 4.572 10.976V11.844C4.572 12.8147 4.684 13.6827 4.908 14.448C5.15067 15.1947 5.50533 15.8293 5.972 16.352C6.43867 16.8747 7.01733 17.2667 7.708 17.528C8.39867 17.7893 9.192 17.92 10.088 17.92ZM27.7551 21.336C26.2618 21.336 25.0765 20.9253 24.1991 20.104C23.3218 19.2827 22.8831 17.9573 22.8831 16.128L22.8831 6.272L26.7751 6.272L26.7751 15.484C26.7751 15.9693 26.8311 16.38 26.9431 16.716C27.0551 17.0333 27.2138 17.2947 27.4191 17.5C27.6431 17.7053 27.9138 17.8547 28.2311 17.948C28.5485 18.0413 28.9031 18.088 29.2951 18.088C29.8738 18.088 30.3965 17.948 30.8631 17.668C31.3298 17.388 31.6938 17.0053 31.9551 16.52C32.2165 16.016 32.3471 15.456 32.3471 14.84V6.272H36.2391V21L33.0471 21L32.7671 18.984H32.5711C32.2165 19.4507 31.7965 19.8613 31.3111 20.216C30.8445 20.5707 30.3125 20.8413 29.7151 21.028C29.1178 21.2333 28.4645 21.336 27.7551 21.336ZM39.8115 4.116V0.755999H43.7035V4.116H39.8115ZM39.8115 21V6.272H43.7035V21H39.8115ZM53.2404 21.336C52.2137 21.336 51.2897 21.224 50.4684 21C49.647 20.776 48.947 20.468 48.3684 20.076C47.7897 19.6653 47.3417 19.18 47.0244 18.62C46.7257 18.06 46.5764 17.4253 46.5764 16.716C46.5764 16.6413 46.5764 16.5667 46.5764 16.492C46.5764 16.4173 46.5857 16.3613 46.6044 16.324L50.3564 16.324C50.3564 16.3613 50.3564 16.3987 50.3564 16.436C50.3564 16.4733 50.3564 16.5107 50.3564 16.548C50.375 17.0147 50.5244 17.3973 50.8044 17.696C51.0844 17.976 51.4484 18.1813 51.8964 18.312C52.363 18.4427 52.8484 18.508 53.3524 18.508C53.8004 18.508 54.2297 18.4707 54.6404 18.396C55.0697 18.3027 55.4244 18.144 55.7044 17.92C56.003 17.696 56.1524 17.4067 56.1524 17.052C56.1524 16.604 55.9657 16.2587 55.5924 16.016C55.2377 15.7733 54.7617 15.5773 54.1644 15.428C53.5857 15.2787 52.951 15.1107 52.2604 14.924C51.6257 14.7747 50.991 14.6067 50.3564 14.42C49.7217 14.2147 49.143 13.9533 48.6204 13.636C48.1164 13.3187 47.7057 12.908 47.3884 12.404C47.071 11.8813 46.9124 11.228 46.9124 10.444C46.9124 9.67867 47.0804 9.016 47.4164 8.456C47.7524 7.87733 48.2097 7.40133 48.7884 7.028C49.3857 6.65467 50.0764 6.384 50.8604 6.216C51.663 6.02933 52.5217 5.936 53.4364 5.936C54.295 5.936 55.0977 6.02933 55.8444 6.216C56.591 6.384 57.2444 6.64533 57.8044 7C58.3644 7.336 58.803 7.76533 59.1204 8.288C59.4377 8.792 59.5964 9.36133 59.5964 9.996C59.5964 10.1267 59.5964 10.248 59.5964 10.36C59.5964 10.472 59.587 10.5467 59.5684 10.584H55.8444V10.36C55.8444 10.024 55.7417 9.744 55.5364 9.52C55.331 9.27733 55.0324 9.09067 54.6404 8.96C54.267 8.82933 53.8097 8.764 53.2684 8.764C52.895 8.764 52.5497 8.792 52.2324 8.848C51.9337 8.904 51.6724 8.988 51.4484 9.1C51.2244 9.212 51.047 9.352 50.9164 9.52C50.8044 9.66933 50.7484 9.856 50.7484 10.08C50.7484 10.3973 50.879 10.6587 51.1404 10.864C51.4204 11.0507 51.7844 11.2093 52.2324 11.34C52.6804 11.4707 53.175 11.6107 53.7164 11.76C54.3884 11.9467 55.0884 12.1333 55.8164 12.32C56.563 12.488 57.2537 12.7213 57.8884 13.02C58.523 13.3187 59.0364 13.748 59.4284 14.308C59.8204 14.8493 60.0164 15.5867 60.0164 16.52C60.0164 17.416 59.839 18.172 59.4844 18.788C59.1484 19.404 58.6724 19.8987 58.0564 20.272C57.4404 20.6453 56.7217 20.916 55.9004 21.084C55.079 21.252 54.1924 21.336 53.2404 21.336Z" fill="#6E7787"/>
<path d="M62.835 21L62.835 0.755999H66.727L66.727 21L62.835 21ZM72.4278 26.264C71.7371 26.264 71.1585 26.208 70.6918 26.096C70.2438 26.0027 69.9545 25.9373 69.8238 25.9V23.268L71.5318 23.268C71.9985 23.268 72.4185 23.156 72.7918 22.932C73.1651 22.7267 73.4918 22.4467 73.7718 22.092C74.0518 21.756 74.2571 21.392 74.3878 21L68.6198 6.272H72.7358L75.2558 13.076C75.3678 13.3933 75.4891 13.7947 75.6198 14.28C75.7691 14.7467 75.9185 15.2413 76.0678 15.764C76.2171 16.268 76.3385 16.716 76.4318 17.108H76.5718C76.6465 16.8467 76.7305 16.5387 76.8238 16.184C76.9171 15.8293 77.0105 15.4653 77.1038 15.092C77.2158 14.7187 77.3185 14.364 77.4118 14.028C77.5238 13.6733 77.6171 13.3653 77.6918 13.104L79.7918 6.272L83.7118 6.272L78.6998 20.3C78.4198 21.1213 78.0931 21.8867 77.7198 22.596C77.3651 23.324 76.9451 23.9587 76.4598 24.5C75.9745 25.06 75.3958 25.4893 74.7238 25.788C74.0705 26.1053 73.3051 26.264 72.4278 26.264Z" fill="#636AE8"/>
</svg>
