<svg width="90" height="83" viewBox="0 0 90 83" fill="none" xmlns="http://www.w3.org/2000/svg">
<g clip-path="url(#clip0_22_95)">
<path fill-rule="evenodd" clip-rule="evenodd" d="M1.89909 30.4864C1.79948 30.0095 1.83588 29.5888 2.49841 28.8792C3.86284 27.4097 7.90956 26.5915 8.18459 26.502C11.254 25.8351 14.3742 25.4309 17.5217 25.2313C22.1879 24.9375 26.8904 25.0984 31.5115 25.4004C36.4238 25.7685 41.282 26.4387 45.9954 27.5983C50.7686 28.7755 55.4029 30.3946 59.8462 32.4197C62.5143 33.6377 65.1184 34.9935 67.6089 36.5436C73.3281 40.1038 78.4984 44.4856 83.2103 49.5385C83.3611 49.6796 83.3663 49.914 83.2272 50.0626C83.0865 50.2147 82.8502 50.2222 82.6998 50.0823C77.4792 45.8397 71.8228 42.479 65.9122 39.6271C63.3857 38.4106 60.8289 37.2826 58.2229 36.2659C53.8952 34.5799 49.4443 33.2377 44.8956 32.1639C40.3929 31.1024 35.8083 30.2619 31.1363 29.825C27.4344 29.4389 23.6736 29.1653 19.9167 29.1268C16.1927 29.09 12.4802 29.2689 8.82748 29.8693L2.38409 30.6548C2.08937 30.628 1.92669 30.6211 1.89909 30.4864Z" fill="#E8618C"/>
<path fill-rule="evenodd" clip-rule="evenodd" d="M72.6571 30.392C72.067 29.1277 72.7693 27.5907 74.1373 27.3118C74.2484 27.29 74.3294 27.2826 74.371 27.2982C74.7186 27.4241 75.0584 27.8251 75.5553 28.3615C75.9881 28.8298 76.4142 29.404 76.8258 30.0658C77.9518 31.8628 78.8311 34.0102 78.9647 34.2561C80.7294 37.9658 83.4207 42.0937 85.2418 46.2408C86.1208 48.2461 86.7991 50.2608 87.1333 52.2351C87.1936 52.6142 87.2265 53.1082 87.1499 53.5434C87.084 53.916 86.9527 54.2615 86.766 54.5627C86.3404 55.2427 85.66 55.6986 84.7441 55.8204C83.8194 55.949 82.2975 55.4668 81.7692 55.3257C79.4959 54.7071 77.2243 54.1966 74.9667 53.7019C72.8341 53.2346 70.6985 52.8543 68.5633 52.4114C65.3384 51.7442 62.178 50.9839 58.8446 50.4795C58.3597 50.4593 57.9852 50.0485 58.0037 49.5628C58.0258 49.0785 58.4377 48.7035 58.922 48.7256C63.0349 48.4888 67.0203 48.3098 71.0247 48.7035C74.8347 49.0778 78.5753 49.9814 82.3659 50.9537C82.0815 49.9539 81.7079 48.9491 81.2842 47.9426C79.5404 43.8099 76.9503 39.6777 75.2711 35.9776L72.6571 30.392Z" fill="#E8618C"/>
</g>
<defs>
<clipPath id="clip0_22_95">
<rect x="0.262695" y="28.6611" width="72" height="59" transform="rotate(-23.32 0.262695 28.6611)" fill="white"/>
</clipPath>
</defs>
</svg>
