<svg width="32" height="32" viewBox="0 0 32 32" fill="none" xmlns="http://www.w3.org/2000/svg">
<path d="M21.5058 15.0472C23.1168 13.8782 24.0472 11.9896 23.9922 10C23.9922 6.12321 20.381 3.20001 15.5922 3.20001C11.4386 3.20001 7.88823 6.26561 7.73863 6.40001L9.84263 8.81121C9.87063 8.78321 12.6562 6.40001 15.5922 6.40001C18.113 6.40001 20.7922 7.66161 20.7922 10C20.7922 13.4264 16.4602 13.6 15.5922 13.6H12.7922V16.8H14.3986C20.7746 16.8 21.5922 18.9376 21.5922 20.8C21.5922 24.3392 18.4922 25.6 15.5922 25.6C13.2252 25.5577 10.9203 24.8357 8.95223 23.52L7.03223 26.08C9.55248 27.8159 12.5322 28.7627 15.5922 28.8C21.0946 28.8 24.7922 25.5848 24.7922 20.8C24.9227 18.4032 23.6368 16.1522 21.5058 15.0472Z" fill="#22CCB2"/>
</svg>
